:FULLY-SPECIFIED
:FORCE-ALL-JOINTS-BE-3DOF
:DEGREES
340
root 8.16698 16.0536 -20.4732 10.5495 24.3068 4.35518
lfemur -10.3144 17.9425 -10.3434
ltibia 42.7726 -0 0
lfoot 3.65588 23.0716 -0.26788
ltoes -23.4874 0 0
rfemur -46.3535 -13.6798 8.64293
rtibia 54.8958 -0 0
rfoot 1.87072 -17.6368 -0.480872
rtoes 8.38419 -0 0
lowerback -0.133989 -1.81448 -1.91181
upperback 1.95046 -2.38747 -0.0924588
thorax 2.15237 -1.22413 0.920262
lowerneck -5.38125 -8.73902 -0.497764
upperneck -2.29304 -11.6258 6.4357
head 0.627943 -5.76349 1.82238
lclavicle -3.23025e-14 1.19271e-14 0
lhumerus -47.924 -35.5183 109.635
lradius 57.718 -0 0
lwrist 19.0165 0 0
lhand 5.98488 12.2841 0.0423447
lfingers 7.12502 -0 0
lthumb 31.3019 39.5625 0.0196951
rclavicle -3.23025e-14 1.19271e-14 0
rhumerus -21.7791 19.2415 -72.3865
rradius 84.0498 -0 0
rwrist 3.39835 0 0
rhand 9.88161 -12.7207 4.0234
rfingers 7.12502 -0 0
rthumb 34.8742 -36.5761 4.42703
341
root 8.09491 16.0798 -20.3049 10.1803 22.7818 3.82161
lfemur -10.154 17.3416 -9.67332
ltibia 44.0475 -0 0
lfoot 4.28888 21.8302 -0.329846
ltoes -20.0239 0 0
rfemur -45.6504 -14.0114 9.98342
rtibia 54.3956 -0 0
rfoot 0.70847 -16.424 -0.592227
rtoes 7.95734 -0 0
lowerback -0.0694824 -1.7238 -1.77693
upperback 1.95302 -2.27152 0.0205965
thorax 2.115 -1.16508 0.964252
lowerneck -5.51031 -8.4875 -0.491208
upperneck -2.00836 -11.3062 6.2914
head 0.721254 -5.59698 1.77871
lclavicle -3.23025e-14 1.19271e-14 0
lhumerus -47.7609 -34.7817 109.314
lradius 57.5752 -0 0
lwrist 18.8845 0 0
lhand 5.35263 12.0874 0.0521218
lfingers 7.12502 -0 0
lthumb 30.6978 39.4667 0.0242422
rclavicle -3.23025e-14 1.19271e-14 0
rhumerus -23.1495 18.5963 -73.9616
rradius 83.6658 -0 0
rwrist 3.60019 0 0
rhand 5.5411 -15.3815 4.98325
rfingers 7.12502 -0 0
rthumb 30.7173 -39.6311 5.48435
342
root 8.02283 16.1059 -20.1366 9.83025 21.2537 3.30432
lfemur -10.0015 16.7389 -9.0072
ltibia 45.3223 -0 0
lfoot 4.92309 20.5882 -0.378079
ltoes -16.5604 0 0
rfemur -44.9546 -14.3589 11.3216
rtibia 53.8954 -0 0
rfoot -0.455894 -15.2092 -0.678937
rtoes 7.53048 -0 0
lowerback -0.00476562 -1.63328 -1.64196
upperback 1.95582 -2.15558 0.133648
thorax 2.07767 -1.10599 1.0082
lowerneck -5.63925 -8.23596 -0.485229
upperneck -1.72481 -10.986 6.14887
head 0.814411 -5.43039 1.73533
lclavicle -3.23025e-14 1.19271e-14 0
lhumerus -47.6043 -34.0443 108.998
lradius 57.4324 -0 0
lwrist 18.7525 0 0
lhand 4.72035 11.8905 0.0597276
lfingers 7.12502 -0 0
lthumb 30.0937 39.3709 0.0277793
rclavicle -3.23025e-14 1.19271e-14 0
rhumerus -24.4956 17.916 -75.5141
rradius 83.2819 -0 0
rwrist 3.80203 0 0
rhand 1.15445 -18.1114 5.73845
rfingers 7.12502 -0 0
rthumb 26.5026 -42.7602 6.31666
343
root 7.95076 16.1321 -19.9683 9.49836 19.7228 2.80209
lfemur -9.85672 16.1346 -8.34481
ltibia 46.5972 -0 0
lfoot 5.55819 19.3457 -0.412552
ltoes -13.0969 0 0
rfemur -44.2662 -14.722 12.6575
rtibia 53.3952 -0 0
rfoot -1.62185 -13.9928 -0.740927
rtoes 7.10363 -0 0
lowerback 0.0601614 -1.54291 -1.50689
upperback 1.95883 -2.03964 0.246697
thorax 2.04039 -1.04688 1.05211
lowerneck -5.76808 -7.9844 -0.479825
upperneck -1.44237 -10.665 6.00811
head 0.907416 -5.26373 1.69223
lclavicle -3.23025e-14 1.19271e-14 0
lhumerus -47.4538 -33.3062 108.687
lradius 57.2896 -0 0
lwrist 18.6205 0 0
lhand 4.08805 11.6937 0.065161
lfingers 7.12502 -0 0
lthumb 29.4896 39.2751 0.0303062
rclavicle -3.23025e-14 1.19271e-14 0
rhumerus -25.8167 17.2015 -77.0434
rradius 82.8979 -0 0
rwrist 4.00387 0 0
rhand -3.2686 -20.8946 6.28265
rfingers 7.12502 -0 0
rthumb 22.2424 -45.947 6.91665
344
root 7.87868 16.1582 -19.8 9.18364 18.1893 2.31379
lfemur -9.71968 15.5287 -7.686
ltibia 47.872 -0 0
lfoot 6.1939 18.1029 -0.433244
ltoes -9.63337 0 0
rfemur -43.5855 -15.1005 13.9911
rtibia 52.895 -0 0
rfoot -2.78888 -12.7754 -0.778142
rtoes 6.67678 -0 0
lowerback 0.125299 -1.45269 -1.37172
upperback 1.96208 -1.9237 0.359744
thorax 2.00316 -0.987736 1.09598
lowerneck -5.89681 -7.73284 -0.474996
upperneck -1.16103 -10.3434 5.8691
head 1.00027 -5.097 1.64941
lclavicle -3.23025e-14 1.19271e-14 0
lhumerus -47.3094 -32.5674 108.381
lradius 57.1468 -0 0
lwrist 18.4885 0 0
lhand 3.45573 11.4967 0.0684213
lfingers 7.12502 -0 0
lthumb 28.8854 39.1792 0.0318224
rclavicle -3.23025e-14 1.19271e-14 0
rhumerus -27.1124 16.4539 -78.5492
rradius 82.514 -0 0
rwrist 4.20571 0 0
rhand -7.7168 -23.7142 6.6111
rfingers 7.12502 -0 0
rthumb 17.9507 -49.1733 7.27888
